<svg xmlns="http://www.w3.org/2000/svg" version="1.1" xmlns:xlink="http://www.w3.org/1999/xlink" xmlns:svgjs="http://svgjs.com/svgjs" width="1920" height="1920" preserveAspectRatio="none" viewBox="0 0 1920 1920"><g mask="url(&quot;#SvgjsMask1249&quot;)" fill="none"><rect width="1920" height="1920" x="0" y="0" fill="#0e2a47"></rect><path d="M1519.6020102989735 1459.0658396392664L1367.0839753016244 1194.8968539532893 1255.4330246129966 1611.5838746366155z" fill="rgba(28, 83, 142, 0.4)" class="triangle-float2"></path><path d="M81.44658246400911 1138.5351319166105L-186.47789950295163 1567.3039315837739 510.2153821311726 1406.4596138835711z" fill="rgba(28, 83, 142, 0.4)" class="triangle-float3"></path><path d="M2067.1271536320323 1734.396614257819L1904.126574067025 1367.3503047725535 1692.8461496530517 1647.7288979008792z" fill="rgba(28, 83, 142, 0.4)" class="triangle-float1"></path><path d="M819.4436276040211 996.2082839665296L701.3691988386415 688.6138807698721 299.0148084263451 1019.5227255162702z" fill="rgba(28, 83, 142, 0.4)" class="triangle-float1"></path><path d="M1660.9612132485613 1004.2384541029273L1996.781273156406 951.049781864671 1607.772541010305 668.4183941950826z" fill="rgba(28, 83, 142, 0.4)" class="triangle-float2"></path><path d="M1922.9808608667488 440.5047184890632L2112.8641747616357 197.46515977621038 1653.3631797449132 34.1599682903061z" fill="rgba(28, 83, 142, 0.4)" class="triangle-float3"></path><path d="M910.3345423006576 112.12526282616832L347.1872721364439 171.3144259987313 969.5237054732206 675.272532990382z" fill="rgba(28, 83, 142, 0.4)" class="triangle-float2"></path><path d="M1569.5182391940987 382.8669515811801L1934.9006705420788 311.84380162226824 1498.4950892351867 17.484520233199817z" fill="rgba(28, 83, 142, 0.4)" class="triangle-float2"></path><path d="M1181.5635873004767 1460.0715946335824L897.0313494043316 1637.8670697250573 1359.3590623919515 1744.6038325297275z" fill="rgba(28, 83, 142, 0.4)" class="triangle-float1"></path><path d="M326.08851858915295 624.6000264420632L18.171826202137538 832.2924579350547 483.6688196351324 1190.321280769082z" fill="rgba(28, 83, 142, 0.4)" class="triangle-float3"></path><path d="M1273.9661010035095 729.9678277252796L1589.0143077298017 851.2481193929053 1547.9438768089954 559.0168187337279z" fill="rgba(28, 83, 142, 0.4)" class="triangle-float1"></path><path d="M1467.3829135037213 213.90687895376198L1655.22736847141 636.8968716099773 1898.7102829205369 313.78413083721796z" fill="rgba(28, 83, 142, 0.4)" class="triangle-float3"></path><path d="M882.5581893249753 591.3395638026511L874.6885582631218 816.696312132987 1216.6584962895524 715.8223845605993z" fill="rgba(28, 83, 142, 0.4)" class="triangle-float2"></path><path d="M519.228590520988 622.6860409807124L-25.998424642699376 924.2314005438689 435.8920452344855 1212.85259910912z" fill="rgba(28, 83, 142, 0.4)" class="triangle-float2"></path><path d="M429.32247567572654 1294.9601605298653L721.228508093863 1619.776644060188 845.5149581612213 1258.8225838268522z" fill="rgba(28, 83, 142, 0.4)" class="triangle-float3"></path><path d="M337.5515813150986 861.1120202454821L684.0647330075639 922.2116380591887 398.65119912880516 514.5988685530168z" fill="rgba(28, 83, 142, 0.4)" class="triangle-float1"></path><path d="M128.66724220607847 2066.8968431936255L166.97726005422558 1526.4403708153463-262.2767500005599 1726.6048029976355z" fill="rgba(28, 83, 142, 0.4)" class="triangle-float1"></path><path d="M1441.1381731846784 889.2659443441237L1535.7104073710698 598.2025361147844 1051.8291779338651 601.875888949867z" fill="rgba(28, 83, 142, 0.4)" class="triangle-float3"></path><path d="M1418.0132177818332 1643.04535133464L1311.894151347453 1295.9455250166557 844.3039450876666 1628.674037827218z" fill="rgba(28, 83, 142, 0.4)" class="triangle-float1"></path><path d="M765.1301420017799 492.6230596623888L422.94237098974975 480.67359938798285 576.1120660841559 999.9299860432309z" fill="rgba(28, 83, 142, 0.4)" class="triangle-float3"></path></g><defs><mask id="SvgjsMask1249"><rect width="1920" height="1920" fill="#ffffff"></rect></mask><style>
            @keyframes float1 {
                0%{transform: translate(0, 0)}
                50%{transform: translate(-35px, 0)}
                100%{transform: translate(0, 0)}
            }

            .triangle-float1 {
                animation: float1 15s infinite;
            }

            @keyframes float2 {
                0%{transform: translate(0, 0)}
                50%{transform: translate(-5px, -5px)}
                100%{transform: translate(0, 0)}
            }

            .triangle-float2 {
                animation: float2 5s infinite;
            }

            @keyframes float3 {
                0%{transform: translate(0, 0)}
                50%{transform: translate(0, -10px)}
                100%{transform: translate(0, 0)}
            }

            .triangle-float3 {
                animation: float3 7s infinite;
            }
        </style></defs></svg>